<svg width="91" height="18" viewBox="0 0 91 18" fill="none" xmlns="http://www.w3.org/2000/svg">
<path d="M1.37091e-06 0H4.55114L9.35796 11.7273H9.5625L14.3693 0H18.9205V17.4545H15.3409V6.09375H15.196L10.679 17.3693H8.24148L3.72443 6.05114H3.57955V17.4545H1.37091e-06V0ZM25.6513 0V17.4545H21.9609V0H25.6513ZM43.2869 0V17.4545H40.0994L32.5057 6.46875H32.3778V17.4545H28.6875V0H31.9261L39.4602 10.9773H39.6136V0H43.2869ZM50.0263 0V17.4545H46.3359V0H50.0263ZM53.0625 0H57.6136L62.4205 11.7273H62.625L67.4318 0H71.983V17.4545H68.4034V6.09375H68.2585L63.7415 17.3693H61.304L56.7869 6.05114H56.642V17.4545H53.0625V0ZM78.032 17.4545H74.0774L80.103 0H84.8587L90.8757 17.4545H86.9212L82.549 3.98864H82.4126L78.032 17.4545ZM77.7848 10.5938H87.1257V13.4744H77.7848V10.5938Z" fill="#0A0908"/>
</svg>
