<svg width="24" height="25" viewBox="0 0 24 25" fill="none" xmlns="http://www.w3.org/2000/svg">
<path d="M5.55833 23.5151C5.14138 23.0921 4.9329 22.5786 4.9329 21.9747C4.9329 21.3706 5.14138 20.857 5.55833 20.434C5.97528 20.0109 6.48136 19.7994 7.07656 19.7994C7.67197 19.7994 8.17815 20.0109 8.5951 20.434C9.01205 20.857 9.22053 21.3706 9.22053 21.9747C9.22053 22.5786 9.01205 23.0921 8.5951 23.5151C8.17815 23.9384 7.67197 24.15 7.07656 24.15C6.48136 24.15 5.97528 23.9384 5.55833 23.5151ZM17.4325 23.5151C17.0156 23.0921 16.8071 22.5786 16.8071 21.9747C16.8071 21.3706 17.0156 20.857 17.4325 20.434C17.8495 20.0109 18.3557 19.7994 18.9511 19.7994C19.5463 19.7994 20.0524 20.0109 20.4693 20.434C20.8863 20.857 21.0947 21.3706 21.0947 21.9747C21.0947 22.5786 20.8863 23.0921 20.4693 23.5151C20.0524 23.9384 19.5463 24.15 18.9511 24.15C18.3557 24.15 17.8495 23.9384 17.4325 23.5151ZM5.68176 4.50058L8.78714 11.0982H17.1391C17.2098 11.0982 17.2726 11.0803 17.3278 11.0445C17.3827 11.0086 17.4298 10.9588 17.469 10.895L20.7557 4.83527C20.8028 4.74764 20.8067 4.66995 20.7673 4.6022C20.7281 4.53446 20.6613 4.50058 20.567 4.50058H5.68176ZM4.8009 2.63605H21.8111C22.3122 2.63605 22.6911 2.85244 22.9477 3.28522C23.2046 3.71779 23.2168 4.15958 22.9845 4.61059L19.0592 11.8248C18.8583 12.1834 18.5925 12.4627 18.2619 12.6626C17.9312 12.8627 17.5687 12.9628 17.1746 12.9628H8.23584L6.81745 15.5921C6.75456 15.6878 6.75262 15.7914 6.81163 15.9028C6.87044 16.0145 6.95875 16.0703 7.07656 16.0703H20.1762C20.4367 16.0703 20.655 16.1595 20.831 16.3379C21.0068 16.5165 21.0947 16.7381 21.0947 17.0026C21.0947 17.2672 21.0068 17.4886 20.831 17.667C20.655 17.8456 20.4367 17.9349 20.1762 17.9349H7.07656C6.25981 17.9349 5.64613 17.5775 5.23551 16.8628C4.82469 16.148 4.81019 15.4344 5.19202 14.722L6.93996 11.5333L2.48266 2.01454H1.06887C0.80812 2.01454 0.589844 1.92525 0.414039 1.74666C0.238029 1.56829 0.150024 1.34682 0.150024 1.08227C0.150024 0.817711 0.238029 0.596245 0.414039 0.417871C0.589844 0.23929 0.80812 0.15 1.06887 0.15H2.94177C3.15086 0.15 3.34566 0.206142 3.52616 0.318429C3.70686 0.430923 3.84428 0.589098 3.93841 0.792954L4.8009 2.63605Z" fill="#0A0908"/>
<path d="M8.78714 11.0982L5.68176 4.50058H20.567C20.6613 4.50058 20.7281 4.53446 20.7673 4.6022C20.8067 4.66995 20.8028 4.74764 20.7557 4.83527L17.469 10.895C17.4298 10.9588 17.3827 11.0086 17.3278 11.0445C17.2726 11.0803 17.2098 11.0982 17.1391 11.0982H8.78714ZM8.78714 11.0982H17.363M5.55833 23.5151C5.14138 23.0921 4.9329 22.5786 4.9329 21.9747C4.9329 21.3706 5.14138 20.857 5.55833 20.434C5.97528 20.0109 6.48136 19.7994 7.07656 19.7994C7.67197 19.7994 8.17815 20.0109 8.5951 20.434C9.01205 20.857 9.22053 21.3706 9.22053 21.9747C9.22053 22.5786 9.01205 23.0921 8.5951 23.5151C8.17815 23.9384 7.67197 24.15 7.07656 24.15C6.48136 24.15 5.97528 23.9384 5.55833 23.5151ZM17.4325 23.5151C17.0156 23.0921 16.8071 22.5786 16.8071 21.9747C16.8071 21.3706 17.0156 20.857 17.4325 20.434C17.8495 20.0109 18.3557 19.7994 18.9511 19.7994C19.5463 19.7994 20.0524 20.0109 20.4693 20.434C20.8863 20.857 21.0947 21.3706 21.0947 21.9747C21.0947 22.5786 20.8863 23.0921 20.4693 23.5151C20.0524 23.9384 19.5463 24.15 18.9511 24.15C18.3557 24.15 17.8495 23.9384 17.4325 23.5151ZM4.8009 2.63605H21.8111C22.3122 2.63605 22.6911 2.85244 22.9477 3.28522C23.2046 3.71779 23.2168 4.15958 22.9845 4.61059L19.0592 11.8248C18.8583 12.1834 18.5925 12.4627 18.2619 12.6626C17.9312 12.8627 17.5687 12.9628 17.1746 12.9628H8.23584L6.81745 15.5921C6.75456 15.6878 6.75262 15.7914 6.81163 15.9028C6.87044 16.0145 6.95875 16.0703 7.07656 16.0703H20.1762C20.4367 16.0703 20.655 16.1595 20.831 16.3379C21.0068 16.5165 21.0947 16.7381 21.0947 17.0026C21.0947 17.2672 21.0068 17.4886 20.831 17.667C20.655 17.8456 20.4367 17.9349 20.1762 17.9349H7.07656C6.25981 17.9349 5.64613 17.5775 5.23551 16.8628C4.82469 16.148 4.81019 15.4344 5.19202 14.722L6.93996 11.5333L2.48266 2.01454H1.06887C0.80812 2.01454 0.589844 1.92525 0.414039 1.74666C0.238029 1.56829 0.150024 1.34682 0.150024 1.08227C0.150024 0.817711 0.238029 0.596245 0.414039 0.417871C0.589844 0.23929 0.80812 0.15 1.06887 0.15H2.94177C3.15086 0.15 3.34566 0.206142 3.52616 0.318429C3.70686 0.430923 3.84428 0.589098 3.93841 0.792954L4.8009 2.63605Z" stroke="#0A0908" stroke-width="0.3" stroke-linecap="round"/>
</svg>
