<svg width="25" height="24" viewBox="0 0 25 24" fill="none" xmlns="http://www.w3.org/2000/svg">
<path d="M8.37667 9.80986C7.23667 8.68694 6.66667 7.33276 6.66667 5.74732C6.66667 4.16216 7.23667 2.80798 8.37667 1.68479C9.51667 0.561595 10.8911 0 12.5 0C14.1089 0 15.4833 0.561595 16.6233 1.68479C17.7633 2.80798 18.3333 4.16216 18.3333 5.74732C18.3333 7.33276 17.7633 8.68694 16.6233 9.80986C15.4833 10.9331 14.1089 11.4946 12.5 11.4946C10.8911 11.4946 9.51667 10.9331 8.37667 9.80986ZM0 21.5053V20.3492C0 19.5451 0.221667 18.8005 0.665 18.1152C1.10833 17.4299 1.70083 16.903 2.4425 16.5346C4.08972 15.739 5.75153 15.1423 7.42792 14.7443C9.10431 14.3464 10.795 14.1474 12.5 14.1474C14.205 14.1474 15.8957 14.3464 17.5721 14.7443C19.2485 15.1423 20.9103 15.739 22.5575 16.5346C23.2992 16.903 23.8917 17.4299 24.335 18.1152C24.7783 18.8005 25 19.5451 25 20.3492V21.5053C25 22.1977 24.7538 22.7866 24.2613 23.2721C23.7688 23.7574 23.171 24 22.4679 24H2.53208C1.82903 24 1.23125 23.7574 0.73875 23.2721C0.24625 22.7866 0 22.1977 0 21.5053ZM2.5 21.5369H22.5V20.3492C22.5 20.0167 22.4022 19.7088 22.2067 19.4255C22.0111 19.1426 21.7457 18.9116 21.4104 18.7326C19.9743 18.0358 18.5111 17.5079 17.0208 17.1488C15.5306 16.79 14.0236 16.6106 12.5 16.6106C10.9764 16.6106 9.46944 16.79 7.97917 17.1488C6.48889 17.5079 5.02569 18.0358 3.58958 18.7326C3.25431 18.9116 2.98889 19.1426 2.79333 19.4255C2.59778 19.7088 2.5 20.0167 2.5 20.3492V21.5369ZM14.8542 8.06678C15.5069 7.42363 15.8333 6.65047 15.8333 5.74732C15.8333 4.84417 15.5069 4.07102 14.8542 3.42787C14.2014 2.78471 13.4167 2.46314 12.5 2.46314C11.5833 2.46314 10.7986 2.78471 10.1458 3.42787C9.49306 4.07102 9.16667 4.84417 9.16667 5.74732C9.16667 6.65047 9.49306 7.42363 10.1458 8.06678C10.7986 8.70993 11.5833 9.03151 12.5 9.03151C13.4167 9.03151 14.2014 8.70993 14.8542 8.06678Z" fill="#0A0908"/>
</svg>
