<svg width="15" height="16" viewBox="0 0 15 16" fill="none" xmlns="http://www.w3.org/2000/svg">
<path d="M3.52716 15.5768C3.25523 15.2947 3.11927 14.9524 3.11927 14.5498C3.11927 14.1471 3.25523 13.8047 3.52716 13.5227C3.79908 13.2406 4.12913 13.0996 4.51731 13.0996C4.90562 13.0996 5.23574 13.2406 5.50766 13.5227C5.77958 13.8047 5.91555 14.1471 5.91555 14.5498C5.91555 14.9524 5.77958 15.2947 5.50766 15.5768C5.23574 15.8589 4.90562 16 4.51731 16C4.12913 16 3.79908 15.8589 3.52716 15.5768ZM11.2712 15.5768C10.9993 15.2947 10.8633 14.9524 10.8633 14.5498C10.8633 14.1471 10.9993 13.8047 11.2712 13.5227C11.5431 13.2406 11.8732 13.0996 12.2615 13.0996C12.6497 13.0996 12.9798 13.2406 13.2517 13.5227C13.5236 13.8047 13.6596 14.1471 13.6596 14.5498C13.6596 14.9524 13.5236 15.2947 13.2517 15.5768C12.9798 15.8589 12.6497 16 12.2615 16C11.8732 16 11.5431 15.8589 11.2712 15.5768ZM3.60765 2.90039L5.6329 7.29883H11.0798C11.1259 7.29883 11.1669 7.28688 11.2029 7.26299C11.2387 7.2391 11.2694 7.20588 11.295 7.16334L13.4385 3.12351C13.4692 3.06509 13.4718 3.0133 13.4461 2.96813C13.4205 2.92297 13.3769 2.90039 13.3154 2.90039H3.60765ZM3.03318 1.65737H14.1268C14.4536 1.65737 14.7007 1.80163 14.8681 2.09015C15.0356 2.37853 15.0436 2.67305 14.892 2.97373L12.3321 7.7832C12.201 8.02227 12.0277 8.20845 11.8121 8.34173C11.5964 8.47515 11.36 8.54185 11.103 8.54185H5.27336L4.34832 10.2947C4.30731 10.3585 4.30604 10.4276 4.34453 10.5019C4.38288 10.5763 4.44047 10.6136 4.51731 10.6136H13.0605C13.2305 10.6136 13.3728 10.673 13.4876 10.7919C13.6023 10.911 13.6596 11.0587 13.6596 11.2351C13.6596 11.4114 13.6023 11.5591 13.4876 11.678C13.3728 11.7971 13.2305 11.8566 13.0605 11.8566H4.51731C3.98465 11.8566 3.58442 11.6183 3.31662 11.1418C3.04869 10.6654 3.03924 10.1896 3.28826 9.71465L4.42822 7.58887L1.52128 1.24302H0.599245C0.429193 1.24302 0.286839 1.1835 0.172183 1.06444C0.0573944 0.945527 0 0.797883 0 0.621512C0 0.445141 0.0573944 0.297497 0.172183 0.178581C0.286839 0.059527 0.429193 0 0.599245 0H1.82071C1.95707 0 2.08411 0.0374285 2.20183 0.112286C2.31968 0.187282 2.4093 0.292732 2.47069 0.428636L3.03318 1.65737Z" fill="#FEFDFD"/>
</svg>
