<svg width="13" height="24" viewBox="0 0 13 24" fill="none" xmlns="http://www.w3.org/2000/svg">
<path d="M10.1715 11.9948L0.387129 2.21043C0.129077 1.95238 0.00329912 1.64854 0.0097937 1.29892C0.0165048 0.949074 0.148886 0.64513 0.406938 0.387078C0.665205 0.129027 0.969151 -1.37358e-07 1.31878 -1.37358e-07C1.6684 -1.37358e-07 1.97235 0.129027 2.23061 0.387078L12.1946 10.3313C12.4295 10.5661 12.6035 10.8293 12.7168 11.1207C12.83 11.4121 12.8866 11.7034 12.8866 11.9948C12.8866 12.2862 12.83 12.5776 12.7168 12.869C12.6035 13.1604 12.4295 13.4235 12.1946 13.6584L2.23061 23.6227C1.97235 23.8808 1.66505 24.0065 1.30871 23.9997C0.952374 23.993 0.64518 23.8607 0.387129 23.6026C0.129077 23.3446 5.22257e-05 23.0406 5.22257e-05 22.6908C5.22257e-05 22.3411 0.129077 22.0373 0.387129 21.7792L10.1715 11.9948Z" fill="#0A0908"/>
</svg>
