<svg width="13" height="24" viewBox="0 0 13 24" fill="none" xmlns="http://www.w3.org/2000/svg">
<path d="M2.71506 12.0052L12.4995 21.7896C12.7575 22.0476 12.8833 22.3515 12.8768 22.7011C12.8701 23.0509 12.7377 23.3549 12.4797 23.6129C12.2214 23.871 11.9174 24 11.5678 24C11.2182 24 10.9143 23.871 10.656 23.6129L0.691998 13.6687C0.45711 13.4339 0.283055 13.1707 0.169833 12.8793C0.0566111 12.5879 0 12.2966 0 12.0052C0 11.7138 0.0566111 11.4224 0.169833 11.131C0.283055 10.8396 0.45711 10.5765 0.691998 10.3416L10.656 0.377265C10.9143 0.119214 11.2216 -0.0064559 11.5779 0.000255164C11.9342 0.00696623 12.2414 0.139347 12.4995 0.397398C12.7575 0.655449 12.8865 0.959396 12.8865 1.30924C12.8865 1.65886 12.7575 1.9627 12.4995 2.22075L2.71506 12.0052Z" fill="#0A0908"/>
</svg>
